<svg xmlns="http://www.w3.org/2000/svg" width="106" height="53" fill="none">
<path fill="#AFB1B8" d="M53.42 27.5a2.95 2.95 0 0 1-.6-2v-2.88c0-.88.2-1.55.6-2.01.4-.46 1.1-.69 2.07-.69.91 0 1.57.2 1.95.59.42.5.62 1.1.58 1.72v.68h-1.64v-.69c0-.22-.01-.44-.05-.67a.65.65 0 0 0-.23-.4.95.95 0 0 0-.6-.15 1 1 0 0 0-.62.16.77.77 0 0 0-.28.44c-.04.24-.06.48-.06.72v3.5c-.03.33.05.67.21.98.08.1.2.18.33.24a.9.9 0 0 0 .42.05.9.9 0 0 0 .58-.16.7.7 0 0 0 .25-.42c.03-.24.05-.47.05-.7v-.71h1.64v.64c.04.65-.16 1.28-.57 1.82-.38.43-1.02.64-1.96.64-.95 0-1.66-.23-2.07-.7ZM60.26 27.52c-.42-.44-.62-1.1-.62-1.96v-3.04c0-.85.2-1.5.62-1.94.41-.44 1.1-.66 2.08-.66.96 0 1.65.22 2.06.66.42.44.63 1.09.63 1.94v3.04c0 .85-.21 1.51-.63 1.96-.42.45-1.1.68-2.06.68s-1.67-.23-2.08-.68Zm2.84-.72c.15-.28.22-.6.2-.9v-3.71c.02-.3-.05-.6-.2-.88a.78.78 0 0 0-.33-.25.9.9 0 0 0-.43-.05.92.92 0 0 0-.44.06.79.79 0 0 0-.34.24c-.14.27-.21.57-.2.88v3.73c-.01.3.05.61.2.9a1.16 1.16 0 0 0 1.19.22c.14-.05.25-.13.35-.23v-.01ZM67 20.01h1.77l1.33 5.6 1.36-5.6h1.72l.17 8.08h-1.27l-.14-5.62-1.3 5.62H69.6l-1.36-5.64-.12 5.64h-1.29L67 20ZM75.33 20.01h2.75c1.59 0 2.38.76 2.38 2.3 0 1.46-.83 2.19-2.5 2.19h-.94v3.59h-1.7l.01-8.08Zm2.35 3.45c.17.02.34 0 .5-.04.16-.04.31-.11.44-.21.19-.28.28-.6.24-.91 0-.25-.02-.5-.08-.74a.6.6 0 0 0-.13-.22.7.7 0 0 0-.21-.16c-.24-.1-.5-.14-.76-.13h-.66v2.41h.66ZM82.9 20.01h1.83l1.88 8.08h-1.59l-.37-1.86h-1.63l-.38 1.86h-1.6L82.9 20Zm1.57 5.28-.64-3.4-.63 3.4h1.27ZM88.12 20.01h1.19l2.27 4.6v-4.6H93v8.08h-1.13l-2.29-4.81v4.8h-1.46v-8.07ZM96.3 25l-1.9-4.98H96l1.15 3.2 1.08-3.2h1.56l-1.86 4.99v3.08h-1.64V25ZM56.05 31.62v.42h-1.39v3.28h-.58v-3.28h-1.4v-.42h3.37ZM60.4 35.32h-.46a.2.2 0 0 1-.12-.03.2.2 0 0 1-.08-.09l-.4-.88h-1.92l-.4.88a.24.24 0 0 1-.06.1.2.2 0 0 1-.13.04h-.45l1.7-3.7h.6l1.71 3.68Zm-2.82-1.37h1.6l-.68-1.51a2.7 2.7 0 0 1-.12-.35l-.07.2-.06.15-.67 1.5ZM63.32 34.96h.32a1.92 1.92 0 0 0 .52-.11l.22-.1v-.83h-.67a.14.14 0 0 1-.1-.03.09.09 0 0 1-.02-.03l-.01-.03v-.29h1.32v1.42a2.57 2.57 0 0 1-1.14.38c-.17.02-.33.02-.5.02-.3 0-.58-.04-.86-.13a2.09 2.09 0 0 1-.68-.4 1.8 1.8 0 0 1-.43-.58c-.11-.24-.16-.5-.16-.77a1.7 1.7 0 0 1 .6-1.36c.18-.16.42-.3.67-.38a2.85 2.85 0 0 1 1.38-.1 2.33 2.33 0 0 1 .75.23l.3.2-.17.23a.14.14 0 0 1-.06.05.17.17 0 0 1-.07.02.22.22 0 0 1-.1-.03l-.17-.1a2.13 2.13 0 0 0-.97-.21 2 2 0 0 0-.66.1c-.2.07-.36.17-.5.3-.14.13-.25.3-.32.46-.15.4-.15.84 0 1.24a1.45 1.45 0 0 0 1.5.83ZM68.74 34.9h1.85v.42h-2.42v-3.7h.58l-.01 3.28ZM72.52 35.32h-.58v-3.7h.58v3.7ZM74.68 31.64c.04.01.07.04.09.06l2.48 2.8V31.6h.5v3.72h-.28c-.05 0-.09 0-.13-.02a.33.33 0 0 1-.09-.07l-2.48-2.79v2.88h-.49v-3.7h.3c.04 0 .07 0 .1.02ZM82.04 31.62v.4h-2.06v1.23h1.67v.4h-1.67v1.26h2.06v.4h-2.66v-3.7h2.66ZM21.16 8.74l25.8 6.33v22.15l-25.8-6.32V8.74Zm-1.65-1.89v25.13l29.1 7.14V13.99L19.5 6.85Z"/><path fill="#AFB1B8" d="M35.1 50.78 6 43.64V18.5l29.1 7.14v25.13Z"/><path fill="#AFB1B8" d="m19.99 8.46 25.46 6.24-10.83 9.35L9.16 17.8l10.83-9.34Zm-.48-1.6L6 18.5l29.1 7.14L48.6 14 19.5 6.85ZM36.74 49.37l11.87-10.25-11.87-2.91v13.16Z"/></svg>