<svg xmlns="http://www.w3.org/2000/svg" width="106" height="53" fill="none">
<path fill="#AFB1B8" d="M36.4 49.19a.13.13 0 0 1 .1.03l.2.21c-.16.17-.37.3-.6.4-.28.1-.58.14-.87.14-.28 0-.56-.04-.82-.13a1.67 1.67 0 0 1-1.01-.95 1.93 1.93 0 0 1 0-1.5c.1-.2.24-.4.43-.57.18-.16.4-.3.65-.38a2.57 2.57 0 0 1 1.63 0c.21.07.41.19.58.32l-.18.23a.18.18 0 0 1-.05.04.12.12 0 0 1-.07.01.18.18 0 0 1-.08-.02l-.1-.06-.13-.07a1.56 1.56 0 0 0-.76-.16c-.2 0-.41.03-.6.1a1.29 1.29 0 0 0-.78.73 1.5 1.5 0 0 0-.12.58c0 .2.04.4.11.6a1.24 1.24 0 0 0 .76.72c.18.06.37.1.56.1l.33-.03a1.32 1.32 0 0 0 .72-.3.17.17 0 0 1 .1-.04ZM42.7 48.14c0 .25-.04.5-.14.74-.1.21-.23.4-.41.57-.19.16-.4.3-.65.38-.53.17-1.12.17-1.66 0a1.91 1.91 0 0 1-.64-.38 1.68 1.68 0 0 1-.41-.58c-.2-.48-.2-1 0-1.48.1-.21.23-.4.41-.58.19-.15.4-.28.64-.36a2.61 2.61 0 0 1 1.66 0c.24.09.46.22.65.38a1.7 1.7 0 0 1 .55 1.31Zm-.57 0c0-.2-.03-.4-.1-.6a1.22 1.22 0 0 0-.75-.71 1.92 1.92 0 0 0-1.2 0 1.3 1.3 0 0 0-.47.28 1.2 1.2 0 0 0-.3.44c-.13.38-.13.8 0 1.18a1.2 1.2 0 0 0 .76.72c.39.13.82.13 1.2 0 .18-.06.34-.15.47-.27.13-.13.23-.28.29-.45.07-.19.1-.39.1-.59ZM47 48.76l.06.13.06-.13.07-.13 1.4-2.2c.02-.04.05-.06.07-.07a.38.38 0 0 1 .12-.01h.41v3.58h-.49V47.06l-1.4 2.23a.2.2 0 0 1-.08.09.24.24 0 0 1-.12.03h-.08a.24.24 0 0 1-.12-.03.2.2 0 0 1-.08-.09l-1.44-2.24v2.87h-.48v-3.57h.42l.11.01.08.07 1.42 2.2.07.13ZM52.24 48.58v1.34h-.54v-3.57h1.21c.23 0 .46.02.68.08.18.04.34.12.48.22.12.1.22.22.28.35.06.15.1.3.09.46a1 1 0 0 1-.4.81c-.14.11-.3.2-.48.24a2.3 2.3 0 0 1-.66.08h-.66Zm0-.38h.66c.15 0 .29-.02.43-.05a.92.92 0 0 0 .3-.16.69.69 0 0 0 .25-.54.6.6 0 0 0-.05-.29.69.69 0 0 0-.2-.24c-.2-.14-.46-.21-.73-.2h-.66v1.48ZM59.57 49.93h-.43a.2.2 0 0 1-.12-.03.22.22 0 0 1-.07-.09l-.37-.86h-1.86l-.39.86a.2.2 0 0 1-.2.12h-.42l1.64-3.58h.57l1.65 3.58Zm-2.7-1.33h1.54l-.65-1.46c-.05-.1-.09-.22-.12-.33l-.06.18-.06.16-.65 1.45ZM61.93 46.37c.03.01.06.03.08.06l2.39 2.7v-2.78h.48v3.58h-.27c-.04 0-.08 0-.11-.02a.3.3 0 0 1-.09-.07l-2.38-2.7v2.79h-.49v-3.58h.3c.02 0 .06 0 .09.02ZM68.9 48.5v1.43h-.54V48.5l-1.51-2.16h.49a.2.2 0 0 1 .12.03l.07.08.94 1.4a2.15 2.15 0 0 1 .17.3l.07-.14.1-.17.92-1.4a.38.38 0 0 1 .07-.07.18.18 0 0 1 .12-.04h.5l-1.52 2.17ZM46.73 40.34l.72.07a19.95 19.95 0 0 0 8.95-6.73 16.11 16.11 0 0 0 3.18-9.9l-4.06-3.53c.83 3.73.44 7.59-1.11 11.13a20.96 20.96 0 0 1-7.68 8.96Z"/><path fill="#AFB1B8" d="m45.28 40.18.11.02c3.7-2.3 6.53-5.52 8.1-9.23a17.33 17.33 0 0 0 .76-11.59l-5.78-5.02a21.53 21.53 0 0 1 2.71 13.31 22.68 22.68 0 0 1-5.9 12.5ZM64.87 27.91a18.04 18.04 0 0 1-6.8 9.9c-1 .75-2.08 1.43-3.22 2 2.79-.7 5.36-1.97 7.5-3.68a16.65 16.65 0 0 0 4.86-6.18l-2.34-2.04Z"/><path fill="#AFB1B8" d="m63.95 27.35-3.34-2.9a16.76 16.76 0 0 1-3.13 9.35 20.38 20.38 0 0 1-8.16 6.67h.02c.75 0 1.5-.04 2.24-.12a20.61 20.61 0 0 0 8.07-5.15 16.95 16.95 0 0 0 4.3-7.85ZM45.77 12.25l-3.98-3.46A18.75 18.75 0 0 0 33 14.8a15 15 0 0 0-3.33 9.27 15.14 15.14 0 0 0 4.03 10.1 19.39 19.39 0 0 0 10.31 5.81 21.84 21.84 0 0 0 6.1-13.62 21.22 21.22 0 0 0-4.35-14.12ZM73.14 26.81c-.01-4.34-2-8.5-5.54-11.57a20.45 20.45 0 0 0-13.32-4.81c-2.31 0-4.6.36-6.76 1.09l24.36 21.16a14.35 14.35 0 0 0 1.26-5.87Z"/></svg>