<svg xmlns="http://www.w3.org/2000/svg" width="106" height="53" fill="none">
<g clip-path="url(#a)">
<path fill="#AFB1B8" fill-rule="evenodd" d="m38 7.09 7 6.63H32V45.9h34V33.6l7 6.62V7.1H38Zm27.7 25.73L45.81 14H65.7v18.82Zm-6.18 8.37H37.38V19.54h1.57v20.19h20.57v1.46Zm-16.91 9-.82 1.68-.82-1.68h-.68l1.2 2.24v1.31h.61v-1.3l1.2-2.25h-.7Zm1.03 3.55.28-.83h1.38l.3.83h.64l-1.35-3.55h-.55l-1.35 3.55h.65Zm.97-2.8.52 1.48H44.1l.51-1.48Zm3.26 1.39a.8.8 0 0 0-.13.45c0 .3.1.54.31.73.21.19.5.28.85.28s.65-.1.9-.29l.2.24h.7l-.53-.62c.2-.28.3-.64.3-1.07h-.5c0 .24-.06.45-.16.65l-.68-.81.24-.18c.17-.12.3-.25.37-.37a.79.79 0 0 0-.14-.97.9.9 0 0 0-.63-.23.94.94 0 0 0-.69.24.87.87 0 0 0-.25.66c0 .11.03.23.08.35.05.13.15.27.29.45a2.1 2.1 0 0 0-.53.49Zm1.6.79a.9.9 0 0 1-.56.2.58.58 0 0 1-.42-.16.53.53 0 0 1-.16-.4c0-.19.1-.36.3-.5l.07-.06.77.92Zm-.63-1.58c-.17-.2-.25-.38-.25-.51 0-.12.03-.22.1-.3a.35.35 0 0 1 .27-.12c.11 0 .2.04.27.1.07.07.1.15.1.24 0 .14-.05.25-.15.34l-.07.07-.27.18Zm5.78 1.93c.25-.21.39-.5.42-.89h-.61c-.03.26-.11.44-.23.55-.13.1-.3.16-.55.16a.69.69 0 0 1-.6-.3c-.14-.2-.21-.5-.21-.88v-.31c0-.38.07-.67.22-.87.14-.2.35-.3.62-.3.23 0 .4.06.52.18.12.11.2.3.23.55h.61a1.34 1.34 0 0 0-.41-.9 1.37 1.37 0 0 0-.95-.32c-.3 0-.55.07-.77.2-.22.14-.4.34-.51.6-.12.25-.18.55-.18.88v.33c0 .33.06.62.18.87.12.24.28.43.5.57.22.13.47.2.75.2.4 0 .73-.1.97-.32Zm3.63-.5c.12-.26.18-.57.18-.91v-.2c0-.35-.06-.65-.18-.91a1.36 1.36 0 0 0-1.3-.81c-.28 0-.54.07-.76.21-.22.14-.4.34-.52.6-.12.27-.19.58-.19.93v.2c0 .34.07.64.19.9s.3.46.52.6c.23.14.49.21.77.21.3 0 .55-.07.78-.21.22-.14.4-.34.51-.6Zm-.66-2c.15.2.23.5.23.9v.19c0 .4-.08.7-.23.9a.72.72 0 0 1-.63.32.74.74 0 0 1-.63-.32 1.55 1.55 0 0 1-.23-.9v-.2c0-.4.08-.69.23-.9a.73.73 0 0 1 .63-.31c.27 0 .48.1.63.31Z" clip-rule="evenodd"/></g><defs><clipPath id="a"><path fill="#fff" d="M0 .09h106v52.83H0z"/></clipPath></defs></svg>