<svg xmlns="http://www.w3.org/2000/svg" width="106" height="53" fill="none">
<g fill="#AFB1B8" clip-path="url(#a)">
<path d="M26.76 44.82c.24.28.37.62.36.98.02.23-.03.46-.13.68-.1.2-.24.4-.43.55-.48.33-1.06.49-1.66.45H22V41.3h2.84a2.6 2.6 0 0 1 1.58.41c.18.14.33.32.42.52.1.2.14.42.13.64.02.34-.1.68-.33.95-.22.24-.52.42-.86.48.38.07.73.25.98.53Zm-3.4-.93h1.2c.28.02.56-.06.78-.2.1-.08.16-.18.2-.28.05-.1.07-.22.06-.33a.7.7 0 0 0-.05-.33.76.76 0 0 0-.2-.28 1.26 1.26 0 0 0-.8-.2h-1.2v1.62Zm2.1 2.37c.1-.08.17-.17.22-.28.05-.11.07-.23.07-.35a.72.72 0 0 0-.07-.35.79.79 0 0 0-.23-.28 1.34 1.34 0 0 0-.82-.23h-1.28v1.7h1.3c.28.02.57-.05.8-.2ZM32.57 47.48 31 45.06h-.6v2.42h-1.36V41.3h2.58a2.7 2.7 0 0 1 1.8.53 1.86 1.86 0 0 1 .2 2.56c-.33.33-.77.56-1.24.63l1.68 2.47h-1.48Zm-2.18-3.26h1.12c.77 0 1.16-.31 1.16-.94a.85.85 0 0 0-.07-.37.92.92 0 0 0-.22-.32 1.28 1.28 0 0 0-.87-.25h-1.13l.01 1.88ZM40.01 46.24H37.3l-.48 1.24h-1.43l2.5-6.12h1.54l2.48 6.12h-1.43L40 46.24Zm-.36-.94-1-2.61-.99 2.61h1.99ZM49.32 47.48h-1.35l-3.03-4.2v4.2H43.6V41.3h1.35l3.03 4.24v-4.24h1.35v6.2ZM57.03 46c-.28.47-.7.85-1.22 1.1-.59.27-1.24.4-1.9.38h-2.4V41.3h2.4c.66-.01 1.31.12 1.9.38.52.24.94.62 1.22 1.08a3.36 3.36 0 0 1 0 3.25Zm-1.54-.15c.38-.4.6-.93.6-1.47 0-.55-.22-1.07-.6-1.48a2.49 2.49 0 0 0-1.7-.53h-.93v4.01h.94c.61.04 1.22-.15 1.69-.53ZM40.86 6.85s17.43 6.03 17.06 14.75v14.76S40.5 30.33 40.86 21.6V6.85ZM73.46 32.9a25.3 25.3 0 0 1 11.08-3.73v-4.62a22.4 22.4 0 0 0-11.08 8.35Z"/><path d="M71.48 34.3a23.1 23.1 0 0 1 13.06-10.72v-13.3s-24.84 8.58-24.31 21v21s1.1-.38 2.85-1.1c0-.67 0-1.35.08-2.03a21.28 21.28 0 0 1 8.32-14.85Z"/><path d="M69.12 42.1c.13-1.46.42-2.9.87-4.3a19.43 19.43 0 0 0-5.26 12.69c1.41-.62 3.05-1.4 4.78-2.3-.44-2-.57-4.06-.39-6.09ZM70.1 42.18c-.16 1.84-.05 3.69.31 5.5 6.79-3.71 14.41-9.46 14.12-16.4v-.6a23.2 23.2 0 0 0-12.91 5.52 19.26 19.26 0 0 0-1.51 5.98Z"/></g><defs><clipPath id="a"><path fill="#fff" d="M0 .09h106v52.83H0z"/></clipPath></defs></svg>