<svg xmlns="http://www.w3.org/2000/svg" width="106" height="53" fill="none">
<path fill="#2196F3" d="M24.15 21.19c-2.4 0-4.35 1.73-4.35 3.86s1.95 3.86 4.34 3.86c2.4 0 4.35-1.73 4.35-3.86s-1.95-3.86-4.34-3.86ZM56.2 19.96c-.01-2.96-1.34-5.8-3.7-7.9a13.43 13.43 0 0 0-8.87-3.27c-3.33 0-6.53 1.18-8.88 3.27a10.6 10.6 0 0 0-3.7 7.9v16.32S56.2 33.79 56.2 19.96ZM11 41.64c0 2.06.93 4.03 2.57 5.49a9.35 9.35 0 0 0 6.17 2.28c2.32 0 4.54-.83 6.18-2.28a7.38 7.38 0 0 0 2.57-5.5V30.29S11 32.01 11 41.64Zm8.74 2.03c-.45 0-.9-.12-1.27-.34a2.1 2.1 0 0 1-.84-.91 1.83 1.83 0 0 1-.13-1.18c.09-.4.3-.76.63-1.04a2.4 2.4 0 0 1 1.17-.56c.44-.08.9-.04 1.32.12.42.15.78.41 1.03.75a1.88 1.88 0 0 1-.28 2.57 2.54 2.54 0 0 1-1.62.6ZM35.73 40.03v4.26h-.88v-4.26h.88Zm1.7 1.82v.69h-1.94v-.69h1.94Zm.2-1.82v.69H35.5v-.7h2.14Zm4.02 2.03v.2c0 .33-.05.62-.13.88-.1.25-.22.47-.38.66-.16.18-.35.31-.57.4-.22.1-.47.15-.74.15a1.65 1.65 0 0 1-1.31-.56c-.16-.18-.28-.4-.37-.65a2.7 2.7 0 0 1-.13-.88v-.2c0-.32.04-.62.13-.87.09-.26.2-.48.37-.66.16-.18.35-.32.57-.42.23-.1.47-.14.74-.14s.51.05.73.14c.23.1.42.24.58.42.16.18.29.4.37.66.1.25.14.55.14.87Zm-.89.2v-.2c0-.23-.02-.43-.06-.6a1.3 1.3 0 0 0-.18-.44.78.78 0 0 0-.7-.35.8.8 0 0 0-.69.35c-.06.12-.12.27-.17.44a2.6 2.6 0 0 0-.06.6v.2c0 .23.02.43.06.6.05.17.1.32.19.44.08.12.17.2.29.26.11.06.25.1.4.1.14 0 .27-.03.39-.1a.79.79 0 0 0 .29-.26c.08-.12.14-.27.18-.44.04-.17.06-.37.06-.6Zm3.74.92a.56.56 0 0 0-.03-.2.39.39 0 0 0-.13-.18c-.06-.05-.14-.1-.25-.15l-.43-.16c-.19-.06-.37-.13-.55-.21a2.26 2.26 0 0 1-.45-.27c-.13-.11-.24-.23-.31-.37a1 1 0 0 1-.12-.48 1 1 0 0 1 .12-.49c.08-.14.19-.27.33-.37.14-.1.3-.19.5-.25a2.25 2.25 0 0 1 1.46.09c.23.11.41.27.54.47.13.2.2.42.2.67h-.88a.66.66 0 0 0-.07-.33.54.54 0 0 0-.24-.22.84.84 0 0 0-.4-.08.9.9 0 0 0-.37.07.5.5 0 0 0-.23.18.45.45 0 0 0-.08.26c0 .07.02.14.06.2.03.05.09.1.16.16a3.83 3.83 0 0 0 .63.28c.23.07.44.14.61.23.18.09.33.19.45.3a1.1 1.1 0 0 1 .36.84c0 .19-.04.35-.1.5-.08.15-.18.27-.32.37-.14.1-.3.18-.5.23a2.37 2.37 0 0 1-1.81-.25 1.25 1.25 0 0 1-.55-1.06h.88c0 .13.02.24.07.33.04.1.1.17.17.23.07.05.16.1.27.12.1.03.22.04.34.04.16 0 .28-.02.38-.07a.46.46 0 0 0 .3-.43Zm3.39-3.15v4.26H47v-4.26h.88Zm1.3 0v.69h-3.47v-.7h3.48Zm3.37 3.58v.68H50.3v-.68h2.27Zm-1.98-3.58v4.26h-.88v-4.26h.88Zm1.69 1.74v.66h-1.98v-.66h1.98Zm.29-1.74v.69h-2.27v-.7h2.27Zm.51 0h1.6c.32 0 .6.05.84.14.23.1.41.25.54.44.13.19.2.43.2.7 0 .23-.05.43-.13.6-.07.16-.18.3-.32.4-.14.1-.3.2-.5.26l-.27.14h-1.38v-.68h1.02a.8.8 0 0 0 .38-.08c.1-.06.18-.13.23-.23a.7.7 0 0 0 .08-.34.77.77 0 0 0-.07-.36.51.51 0 0 0-.24-.22.85.85 0 0 0-.39-.08h-.7v3.57h-.89v-4.26Zm2.39 4.26-.97-1.9h.92l.99 1.86v.04h-.94Zm4.61-1.52H59v-.68h1.08a.9.9 0 0 0 .41-.08c.1-.06.19-.14.23-.24.05-.1.08-.21.08-.34a.86.86 0 0 0-.08-.35.6.6 0 0 0-.23-.26.76.76 0 0 0-.4-.1h-.79v3.57h-.88v-4.26h1.66c.34 0 .62.06.86.18a1.3 1.3 0 0 1 .74 1.22c0 .27-.06.51-.19.71-.12.2-.3.36-.55.47-.24.1-.52.16-.86.16Zm5.07.84v.68h-2.27v-.68h2.27Zm-1.98-3.58v4.26h-.88v-4.26h.88Zm1.69 1.74v.66h-1.98v-.66h1.98Zm.29-1.74v.69h-2.27v-.7h2.27Zm2.48 0v4.26h-.88v-4.26h.88Zm1.31 0v.69h-3.48v-.7h3.48Zm3.37 3.58v.68h-2.27v-.68h2.27Zm-1.99-3.58v4.26h-.88v-4.26h.88ZM72 41.77v.66h-1.97v-.66H72Zm.3-1.74v.69h-2.27v-.7h2.26Zm.5 0h1.6c.33 0 .6.05.84.14.24.1.42.25.54.44.13.19.2.43.2.7 0 .23-.04.43-.12.6-.08.16-.19.3-.33.4-.14.1-.3.2-.49.26l-.27.14h-1.39v-.68h1.03a.8.8 0 0 0 .38-.08c.1-.06.18-.13.23-.23a.7.7 0 0 0 .08-.34.77.77 0 0 0-.08-.36.51.51 0 0 0-.23-.22.86.86 0 0 0-.4-.08h-.7v3.57h-.88v-4.26Zm2.4 4.26-.98-1.9h.93l.98 1.86v.04h-.94Zm3.67-1.11a.56.56 0 0 0-.03-.2.39.39 0 0 0-.13-.18c-.06-.05-.14-.1-.25-.15l-.43-.16c-.19-.06-.37-.13-.55-.21a2.26 2.26 0 0 1-.45-.27c-.13-.11-.24-.23-.31-.37a1 1 0 0 1-.11-.48 1 1 0 0 1 .11-.49c.08-.14.19-.27.33-.37.14-.1.3-.19.5-.25a2.25 2.25 0 0 1 1.46.09c.23.11.41.27.54.47.13.2.2.42.2.67h-.87a.66.66 0 0 0-.08-.33.54.54 0 0 0-.24-.22.84.84 0 0 0-.39-.08.9.9 0 0 0-.38.07.5.5 0 0 0-.23.18.45.45 0 0 0-.08.26c0 .07.02.14.06.2.03.05.09.1.16.16a3.83 3.83 0 0 0 .63.28c.24.07.44.14.62.23.17.09.32.19.44.3a1.1 1.1 0 0 1 .36.84c0 .19-.03.35-.1.5-.08.15-.18.27-.32.37-.14.1-.3.18-.49.23a2.37 2.37 0 0 1-1.82-.25 1.25 1.25 0 0 1-.55-1.06h.89c0 .13.02.24.06.33.04.1.1.17.17.23.08.05.17.1.27.12.1.03.22.04.34.04.16 0 .28-.02.38-.07a.46.46 0 0 0 .3-.43Z"/></svg>