<svg xmlns="http://www.w3.org/2000/svg" width="106" height="53" fill="none">
<g fill="#AFB1B8" clip-path="url(#a)">
<path fill-rule="evenodd" d="M50.11 6.02h-.13L49.35 6h-.46a23.94 23.94 0 0 0-1.3.03c-3.64.2-7.2 1.12-10.51 2.68l-.43.21v22.14l1.01-.34a34.33 34.33 0 0 1 10.9-1.91v2.9l-1.06.04h-.08a32.36 32.36 0 0 0-13.65 3.85V7.2a29.73 29.73 0 0 1 7.79-3.17 29.8 29.8 0 0 1 7.33-.94h.43a21.09 21.09 0 0 1 5.13.65V6.6a22.62 22.62 0 0 0-3.54-.53h-.07c-.25-.03-.5-.05-.73-.05Zm5.04 2.93a31.47 31.47 0 0 0 9.67-.92 31.78 31.78 0 0 0 7.42-2.9v27.9a29.81 29.81 0 0 1-7.79 3.16c-2.4.62-4.86.94-7.33.95a22.4 22.4 0 0 1-5.57-.66V8.41a22.96 22.96 0 0 0 3.6.54Zm14.2.21-1.01.35a34.27 34.27 0 0 1-13.07 1.86l-.82-.05V34.1l.7.05c.64.06 1.3.09 1.97.09 2.23-.01 4.46-.3 6.62-.86a27.76 27.76 0 0 0 5.17-1.86l.44-.2V9.15Z" clip-rule="evenodd"/><path d="M35.74 45.3a1.5 1.5 0 0 0-1.13-.46c-.22 0-.44.04-.65.13a1.46 1.46 0 0 0-.83.84c-.08.2-.12.41-.12.63v3.79c0 .27.04.53.15.78.1.2.22.37.38.5.15.13.33.23.52.28.19.05.38.07.57.08a1.6 1.6 0 0 0 1.57-1.6v-.43h-1v.34c.01.12 0 .23-.05.34a.6.6 0 0 1-.14.21.7.7 0 0 1-.41.14.5.5 0 0 1-.47-.2.9.9 0 0 1-.14-.5v-3.54c0-.2.04-.4.13-.57a.5.5 0 0 1 .48-.23.53.53 0 0 1 .44.22.8.8 0 0 1 .17.5v.33h.98v-.38a1.8 1.8 0 0 0-.45-1.2ZM41.63 45.26a1.77 1.77 0 0 0-1.72-.31c-.2.06-.37.17-.52.3-.17.15-.3.34-.39.54-.1.23-.15.48-.14.73v3.64c-.01.26.04.51.14.75.09.2.22.37.39.5.15.15.32.25.52.33a1.74 1.74 0 0 0 1.18 0 1.55 1.55 0 0 0 1.05-1.57v-3.65a1.64 1.64 0 0 0-.52-1.27Zm-.46 4.9a.66.66 0 0 1-.2.53.73.73 0 0 1-.93 0 .65.65 0 0 1-.2-.53v-3.64a.65.65 0 0 1 .2-.52.73.73 0 0 1 .93 0 .65.65 0 0 1 .2.52v3.64ZM49.37 51.79v-6.9h-.96l-1.25 3.65h-.02l-1.26-3.64h-.94v6.89h.98v-4.2h.02l.96 2.97h.5l.97-2.96h.01v4.19h.99ZM54.96 45.38c-.15-.17-.34-.3-.56-.38a2.18 2.18 0 0 0-.71-.1h-1.46v6.89h.98v-2.7h.5c.31.02.61-.04.89-.18a1.65 1.65 0 0 0 .76-1.13 4.9 4.9 0 0 0-.04-1.77 1.47 1.47 0 0 0-.36-.63Zm-.5 2.1c-.01.13-.04.25-.1.36-.06.1-.14.19-.25.24a1 1 0 0 1-.46.09h-.45v-2.34h.5c.16-.01.3.02.45.08.1.06.18.15.23.26a1 1 0 0 1 .08.38V47.48ZM59.6 44.9h-.8l-1.51 6.89h.98l.29-1.48h1.33l.3 1.48h.97l-1.55-6.9Zm-.9 4.47.49-2.5h.01l.48 2.5h-.98ZM65.95 49.05h-.02l-1.48-4.15h-.94v6.89h.98v-4.15h.02L66 51.8h.92v-6.9h-.98v4.16ZM71.95 44.9l-.8 2.74h-.01l-.8-2.74h-1.03l1.35 3.97v2.92h.98v-2.92l1.35-3.97h-1.04Z"/></g><defs><clipPath id="a"><path fill="#fff" d="M0 .09h106v52.83H0z"/></clipPath></defs></svg>